<svg width="14" height="9" viewBox="0 0 14 9" fill="#000" xmlns="http://www.w3.org/2000/svg">
<path d="M9.14071 0.581363H12.6341V1.42889H9.14071V0.581363ZM5.64028 3.93471C6.41251 3.56523 6.81701 3.00313 6.81701 2.13458C6.81701 0.41676 5.53871 0 4.06254 0H0V8.62239H4.17636C5.74184 8.62239 7.21101 7.86942 7.21101 6.11832C7.21101 5.03615 6.69969 4.2359 5.64028 3.93471ZM1.89468 1.47092H3.67205C4.35672 1.47092 4.97136 1.66179 4.97136 2.45679C4.97136 3.18874 4.49331 3.48293 3.81563 3.48293H1.89468V1.47092ZM3.9172 7.15847H1.89293V4.78399H3.95747C4.79099 4.78399 5.31807 5.13246 5.31807 6.01501C5.31807 6.88355 4.68943 7.15847 3.9172 7.15847ZM14 5.59125C14 3.74384 12.9196 2.20463 10.9654 2.20463C9.06542 2.20463 7.77311 3.63527 7.77311 5.51069C7.77311 7.45441 8.99712 8.78874 10.9654 8.78874C12.4555 8.78874 13.4204 8.11807 13.8844 6.68743H12.3732C12.2086 7.22151 11.5397 7.50169 11.0196 7.50169C10.0145 7.50169 9.48918 6.91332 9.48918 5.91345H13.9877C13.993 5.81013 14 5.70156 14 5.59125ZM9.48918 4.83127C9.54347 4.01001 10.0916 3.49694 10.9111 3.49694C11.7726 3.49694 12.2034 4.003 12.2787 4.83127H9.48918Z" />
</svg>
