<svg width="14" height="14" viewBox="0 0 14 14" fill="#000" xmlns="http://www.w3.org/2000/svg">
<path d="M0 7.00646C0 5.73961 0.310251 4.56325 0.930751 3.4903C1.55125 2.41735 2.40444 1.56417 3.47739 0.943669C4.55033 0.323171 5.7267 0 6.99355 0C8.2604 0 9.43677 0.310244 10.5097 0.943669C11.5827 1.56417 12.4359 2.41735 13.0563 3.4903C13.6768 4.56325 14 5.73961 14 7.00646C14 8.27331 13.6898 9.44967 13.0563 10.5226C12.4359 11.5956 11.5827 12.4488 10.5097 13.0693C9.43677 13.6897 8.2604 14 6.99355 14C5.7267 14 4.55033 13.6897 3.47739 13.0693C2.40444 12.4488 1.55125 11.5956 0.930751 10.5226C0.310251 9.44967 0 8.27331 0 7.00646ZM1.16343 7.00646C1.16343 8.46722 1.65464 9.74701 2.63709 10.8587C3.08954 9.9797 3.78763 9.15236 4.77009 8.35088C5.73962 7.56233 6.68328 7.05817 7.61402 6.85134C7.47183 6.52816 7.34256 6.23083 7.21329 5.97229C5.61033 6.48937 3.87811 6.74792 2.00368 6.74792C1.64172 6.74792 1.37025 6.74793 1.18927 6.735C1.18927 6.77378 1.1893 6.81257 1.17637 6.8772C1.16344 6.92891 1.16343 6.96768 1.16343 7.00646ZM1.34439 5.57156C1.55122 5.58448 1.84856 5.59742 2.2493 5.59742C3.81347 5.59742 5.28715 5.39058 6.68327 4.96398C5.97228 3.71006 5.19666 2.65006 4.34348 1.8098C3.60663 2.18468 2.97321 2.70176 2.4432 3.36104C1.92611 4.03325 1.56415 4.77008 1.34439 5.57156ZM3.42567 11.6214C4.48569 12.4358 5.67499 12.8495 6.99355 12.8495C7.67868 12.8495 8.36382 12.7202 9.04895 12.4617C8.86797 10.8716 8.49308 9.3204 7.95014 7.83379C7.09695 8.01477 6.23083 8.49308 5.35179 9.24285C4.4986 9.99262 3.85226 10.7812 3.42567 11.6214ZM5.57156 1.37026C6.3989 2.22345 7.14865 3.28348 7.85964 4.55033C9.12649 4.02032 10.0831 3.3481 10.7295 2.52077C9.64358 1.6288 8.40257 1.17637 7.00645 1.17637C6.52815 1.17637 6.04987 1.24099 5.57156 1.37026ZM8.36382 5.54572C8.50601 5.84304 8.66113 6.21791 8.84211 6.68328C9.52725 6.61865 10.2899 6.57986 11.0914 6.57986C11.6731 6.57986 12.2419 6.59279 12.8107 6.61864C12.7332 5.35179 12.2807 4.22715 11.4405 3.23176C10.8329 4.13666 9.79872 4.91229 8.36382 5.54572ZM9.17823 7.65281C9.65653 9.03601 9.97971 10.458 10.1478 11.9058C10.8846 11.4275 11.4922 10.82 11.9575 10.0702C12.4229 9.32042 12.7073 8.51892 12.7978 7.65281C12.1127 7.6011 11.4922 7.58817 10.9363 7.58817C10.4192 7.58817 9.83751 7.61403 9.17823 7.65281Z" fill="#C4C4C4"/>
</svg>
