<svg width="10" height="14" viewBox="0 0 10 14" fill="#000" xmlns="http://www.w3.org/2000/svg">
<path fill-rule="evenodd" clip-rule="evenodd" d="M2.33034 0C1.04599 0 0 1.04538 0 2.32894C0 3.62573 1.04599 4.6711 2.33034 4.6711H4.66073V0H2.33034ZM0 7.00006C0 5.71651 1.04599 4.67114 2.33034 4.67114H4.66073V9.34223H2.33034C1.04599 9.34223 0 8.28362 0 7.00006ZM2.34377 14.0001C3.62812 14.0001 4.67415 12.9547 4.67415 11.6712V9.34229H2.34377C1.05941 9.34229 0.013382 10.3876 0.013382 11.6712C0.013382 12.9547 1.04617 14.0001 2.34377 14.0001ZM4.67378 0H7.00415C8.28851 0 9.33455 1.04539 9.33455 2.32894C9.33455 3.6125 8.28851 4.65787 7.00415 4.65787H4.67378V0ZM7.01759 9.32899C8.30195 9.32899 9.34799 8.28362 9.34799 7.00006C9.34799 5.71651 8.30195 4.67114 7.01759 4.67114C5.73322 4.67114 4.68718 5.71651 4.68718 7.00006C4.68718 8.28362 5.73322 9.32899 7.01759 9.32899Z" fill="#C4C4C4"/>
</svg>
