<svg width="21" height="22" viewBox="0 0 21 22" fill="none" xmlns="http://www.w3.org/2000/svg">
<path d="M19.035 4.25705C19.945 5.34905 20.399 6.62305 20.399 8.07905C20.399 13.356 17.397 14.903 14.576 15.358C14.94 15.995 15.031 16.723 15.031 17.451V21.181C15.031 21.636 14.758 21.909 14.394 21.909C14.298 21.9104 14.2028 21.8925 14.1138 21.8564C14.0249 21.8203 13.9441 21.7667 13.8762 21.6988C13.8084 21.6309 13.7548 21.5502 13.7187 21.4612C13.6826 21.3723 13.6647 21.277 13.666 21.181V17.451C13.714 17.0697 13.6732 16.6824 13.5469 16.3194C13.4206 15.9563 13.2123 15.6274 12.938 15.358L13.393 14.175C16.214 13.811 19.126 12.901 19.126 7.98805C19.126 6.80505 18.671 5.71305 17.852 4.80305L17.67 4.07605C18.0161 3.2041 18.0479 2.2389 17.76 1.34605C17.306 1.43605 16.396 1.61905 14.85 2.71105L14.303 2.80105C12.1538 2.25531 9.90225 2.25531 7.75302 2.80105L7.20602 2.71105C5.57002 1.71005 4.66002 1.43705 4.20402 1.43705C3.93102 2.34705 3.93102 3.34705 4.29402 4.16705L4.11302 4.89405C3.20302 5.80405 2.74802 6.98705 2.74802 8.07905C2.74802 12.901 5.47802 13.902 8.48002 14.266L8.84402 15.449C8.29802 15.995 8.02502 16.723 8.11602 17.451V21.272C8.11737 21.368 8.09946 21.4633 8.06335 21.5522C8.02724 21.6412 7.97367 21.7219 7.90579 21.7898C7.83792 21.8577 7.75713 21.9113 7.6682 21.9474C7.57927 21.9835 7.484 22.0014 7.38802 22C7.29205 22.0014 7.19678 21.9835 7.10784 21.9474C7.01891 21.9113 6.93812 21.8577 6.87025 21.7898C6.80238 21.7219 6.7488 21.6412 6.71269 21.5522C6.67659 21.4633 6.65867 21.368 6.66002 21.272V19.18C3.65802 19.817 2.47502 18.27 1.56502 17.088C1.11002 16.542 0.746021 16.087 0.291021 15.996C0.201021 15.905 -0.0729792 15.541 0.0180208 15.177C0.109021 14.813 0.473021 14.54 0.838021 14.722C1.74802 14.904 2.29302 15.632 2.83802 16.269C3.65802 17.361 4.47702 18.361 6.93302 17.816V17.452C6.84302 16.724 7.02402 15.996 7.38802 15.359C4.65802 14.813 1.47402 13.266 1.47402 8.08005C1.47402 6.62405 1.92902 5.35005 2.83902 4.25805C2.56602 2.98505 2.65702 1.62005 3.11202 0.528046L3.56702 0.164046C3.74902 0.0730464 5.02302 -0.199954 7.66002 1.43705C9.84037 0.89112 12.1217 0.89112 14.302 1.43705C16.851 -0.291954 18.216 -0.0199537 18.398 0.0720463L18.853 0.436046C19.308 1.71005 19.399 2.98405 19.035 4.25705V4.25705Z" fill="black"/>
</svg>
