<svg width="14" height="14" viewBox="0 0 14 14" fill="#000" xmlns="http://www.w3.org/2000/svg">
<path d="M3.17811 13.4168V4.3645H0.177061V13.4168H3.17811ZM1.67797 3.12782C2.72449 3.12782 3.3759 2.43272 3.3759 1.56406C3.3564 0.675816 2.72453 0 1.69783 0C0.671294 0 0 0.675829 0 1.56406C0 2.43276 0.651247 3.12782 1.65838 3.12782H1.67788H1.67797ZM4.83918 13.4168H7.84023V8.36155C7.84023 8.091 7.85973 7.82073 7.93898 7.62733C8.15593 7.08678 8.64972 6.52692 9.47874 6.52692C10.5647 6.52692 10.9991 7.35705 10.9991 8.57395V13.4167H14V8.22622C14 5.44572 12.5194 4.15198 10.5449 4.15198C8.92599 4.15198 8.21516 5.05925 7.82027 5.67719H7.8403V4.36431H4.83925C4.87863 5.21373 4.83925 13.4166 4.83925 13.4166L4.83918 13.4168Z" fill="#C4C4C4"/>
</svg>
